<?xml version="1.0" encoding="UTF-8"?>
<svg xmlns="http://www.w3.org/2000/svg" xmlns:xlink="http://www.w3.org/1999/xlink" width="20px" height="20px" viewBox="0 0 20 20" version="1.1">
<g id="surface1">
<path style=" stroke:none;fill-rule:nonzero;fill:rgb(0%,0%,0%);fill-opacity:1;" d="M 18.695312 9.285156 C 18.695312 9.679688 18.554688 10.015625 18.28125 10.289062 L 11.015625 17.566406 C 10.726562 17.84375 10.386719 17.980469 10 17.980469 C 9.605469 17.980469 9.269531 17.84375 8.996094 17.566406 L 1.730469 10.289062 C 1.445312 10.023438 1.304688 9.6875 1.304688 9.285156 C 1.304688 8.890625 1.445312 8.554688 1.730469 8.269531 L 2.554688 7.433594 C 2.847656 7.15625 3.183594 7.019531 3.570312 7.019531 C 3.964844 7.019531 4.300781 7.15625 4.574219 7.433594 L 7.855469 10.714844 L 7.855469 2.855469 C 7.855469 2.46875 8 2.136719 8.28125 1.851562 C 8.5625 1.570312 8.898438 1.429688 9.285156 1.429688 L 10.714844 1.429688 C 11.101562 1.429688 11.4375 1.570312 11.71875 1.851562 C 12 2.136719 12.144531 2.46875 12.144531 2.855469 L 12.144531 10.714844 L 15.425781 7.433594 C 15.699219 7.15625 16.035156 7.019531 16.429688 7.019531 C 16.816406 7.019531 17.152344 7.15625 17.445312 7.433594 L 18.28125 8.269531 C 18.554688 8.558594 18.695312 8.898438 18.695312 9.285156 Z M 18.695312 9.285156 "/>
</g>
</svg>
